<svg width="24" height="24" viewBox="0 0 24 24" fill="none" xmlns="http://www.w3.org/2000/svg">
<g id="cil-phone">
<path id="Vector" d="M2.93478 4.20266L2.96689 4.1826L7.02594 2.18286L11.407 8.02428L9.39139 10.712C9.4517 11.7255 9.88154 12.6818 10.5995 13.3998C11.3175 14.1178 12.2738 14.5476 13.2874 14.6079L15.975 12.5923L21.8164 16.9733L19.8333 20.9984L19.8166 21.0324L19.7965 21.0644C19.6907 21.235 19.543 21.3756 19.3674 21.4728C19.1919 21.5701 18.9944 21.6209 18.7937 21.6202H17.7463C15.7283 21.6202 13.73 21.2227 11.8655 20.4505C10.0011 19.6782 8.30698 18.5462 6.87999 17.1192C5.45301 15.6922 4.32106 13.9982 3.54878 12.1337C2.77651 10.2693 2.37902 8.27095 2.37903 6.25288V5.20546C2.37839 5.00477 2.42912 4.80726 2.5264 4.63173C2.62368 4.4562 2.76427 4.30849 2.93478 4.20266ZM3.87903 6.25288C3.87903 13.8994 10.0999 20.1202 17.7463 20.1202H18.5938L19.9207 17.4267L15.9748 14.4672L13.7779 16.1148H13.5279C12.0316 16.1131 10.597 15.518 9.53899 14.4599C8.48094 13.4019 7.8858 11.9674 7.88412 10.4711V10.2211L9.53173 8.02424L6.57261 4.07853L3.87903 5.40561V6.25288Z" fill="#454545"/>
</g>
</svg>
