<svg width="31" height="22" viewBox="0 0 31 22" fill="none" xmlns="http://www.w3.org/2000/svg">
<g id="Vector">
<path d="M20.0868 12.2987L17.4905 14.928C16.4376 15.9944 14.5851 16.0174 13.5095 14.928L10.9131 12.2987L1.5879 21.7413C1.93502 21.9033 2.31773 22 2.72461 22H28.2754C28.6823 22 29.0649 21.9034 29.4119 21.7414L20.0868 12.2987Z" fill="#015BBB"/>
<path d="M28.2754 0H2.72461C2.31773 0 1.93502 0.0966779 1.58802 0.258683L11.5526 10.3495C11.5533 10.3502 11.5541 10.3503 11.5548 10.351C11.5554 10.3517 11.5556 10.3526 11.5556 10.3526L14.7956 13.6336C15.1397 13.981 15.8604 13.981 16.2045 13.6336L19.4439 10.3531C19.4439 10.3531 19.4447 10.3517 19.4454 10.351C19.4454 10.351 19.4468 10.3502 19.4475 10.3495L29.4119 0.258622C29.0649 0.0965557 28.6823 0 28.2754 0Z" fill="#015BBB"/>
<path d="M0.289777 1.54073C0.110195 1.90728 0 2.31416 0 2.75V19.25C0 19.6858 0.110074 20.0927 0.289717 20.4593L9.63107 11.0003L0.289777 1.54073Z" fill="#015BBB"/>
<path d="M30.7102 1.54061L21.369 11.0003L30.7102 20.4594C30.8898 20.0928 31 19.686 31 19.25V2.75C31 2.31403 30.8898 1.90716 30.7102 1.54061Z" fill="#015BBB"/>
</g>
</svg>
