<svg width="24" height="33" viewBox="0 0 24 33" fill="none" xmlns="http://www.w3.org/2000/svg">
<path id="Vector" d="M12 0C5.38316 0 0 5.36135 0 11.9513C0 20.1296 10.7388 32.1359 11.196 32.643C11.6255 33.1194 12.3753 33.1186 12.804 32.643C13.2612 32.1359 24 20.1296 24 11.9513C23.9999 5.36135 18.6168 0 12 0ZM12 17.9643C8.67091 17.9643 5.96256 15.2669 5.96256 11.9513C5.96256 8.6357 8.67097 5.93833 12 5.93833C15.329 5.93833 18.0374 8.63576 18.0374 11.9514C18.0374 15.267 15.329 17.9643 12 17.9643Z" fill="#015BBB"/>
</svg>
