<svg width="31" height="32" viewBox="0 0 31 32" fill="none" xmlns="http://www.w3.org/2000/svg">
<g id="Vector">
<path d="M23.5685 21.1686C22.5557 20.1365 21.2913 20.1365 20.2849 21.1686C19.5173 21.9544 18.7496 22.7401 17.9949 23.5392C17.7884 23.7589 17.6142 23.8055 17.3627 23.6591C16.8659 23.3794 16.337 23.153 15.8596 22.8467C13.634 21.4017 11.7697 19.5439 10.1182 17.453C9.29895 16.4142 8.57 15.3021 8.06037 14.0503C7.95715 13.7972 7.97651 13.6308 8.17649 13.4243C8.94415 12.6586 9.69246 11.8728 10.4472 11.0871C11.4987 9.995 11.4987 8.71649 10.4408 7.61778C9.84084 6.99184 9.2409 6.37922 8.64096 5.75328C8.02166 5.11403 7.40882 4.46812 6.78308 3.83552C5.77028 2.81671 4.50589 2.81671 3.49954 3.84218C2.72542 4.62793 1.98356 5.43366 1.19654 6.20609C0.467583 6.91859 0.0998779 7.79091 0.0224663 8.80972C-0.100102 10.4678 0.293407 12.0326 0.84819 13.5575C1.98356 16.7138 3.71242 19.5172 5.80898 22.0876C8.64096 25.5635 12.0213 28.3136 15.9757 30.298C17.7562 31.1903 19.6011 31.8761 21.6074 31.9893C22.9879 32.0692 24.1878 31.7097 25.149 30.5976C25.807 29.8385 26.5488 29.146 27.2455 28.4202C28.2777 27.3414 28.2841 26.0363 27.2584 24.9709C26.0328 23.699 24.8006 22.4338 23.5685 21.1686Z" fill="#015BBB"/>
<path d="M22.3364 15.8615L24.7168 15.442C24.3426 13.1846 23.3104 11.1403 21.7429 9.51556C20.085 7.80422 17.9884 6.72548 15.679 6.39254L15.3435 8.86299C17.1304 9.12269 18.7561 9.95505 20.0398 11.2802C21.2526 12.532 22.0461 14.1169 22.3364 15.8615Z" fill="#015BBB"/>
<path d="M26.0586 5.18062C23.3105 2.34393 19.8334 0.552688 15.9951 0L15.6596 2.47045C18.9754 2.94989 21.9816 4.50141 24.3555 6.94523C26.6069 9.26918 28.0842 12.2058 28.6196 15.4353L31 15.0158C30.3743 11.2735 28.6648 7.87747 26.0586 5.18062Z" fill="#015BBB"/>
</g>
</svg>
