<svg width="22" height="22" viewBox="0 0 22 22" fill="none" xmlns="http://www.w3.org/2000/svg">
<path id="Vector" d="M8.85432 17.702C10.8207 17.7021 12.7309 17.0459 14.2822 15.8374L20.1349 21.691C20.5721 22.1133 21.2688 22.1012 21.6911 21.6639C22.103 21.2374 22.103 20.5611 21.6911 20.1346L15.8384 14.281C18.8367 10.4208 18.1385 4.86044 14.2788 1.86165C10.4192 -1.13714 4.8597 -0.438825 1.86137 3.42143C-1.13697 7.28168 -0.438759 12.842 3.42091 15.8408C4.97478 17.0481 6.88664 17.703 8.85432 17.702ZM4.15172 4.14897C6.74892 1.55133 10.9598 1.55128 13.5571 4.14887C16.1543 6.74647 16.1544 10.958 13.5572 13.5556C10.96 16.1533 6.74907 16.1533 4.15182 13.5557L4.15172 13.5556C1.55452 10.977 1.53922 6.78079 4.1175 4.1832C4.12889 4.17176 4.14028 4.16036 4.15172 4.14897Z" fill="#454545"/>
</svg>
